<svg
  width="298"
  height="259"
  viewBox="0 0 298 259"
  fill="none"
  xmlns="http://www.w3.org/2000/svg"
  role="img"
  aria-labelledby="title-id"
  aria-describedby="description-id"
>
  <style>
  /* 
    * Card styles for GitHub StatCrab
    * 
    * This file contains the styles for the base card component.
  */
  
  .title {
    font: 800 17px "Helvetica Neue", Helvetica, Arial, sans-serif;
  }
  
  .statsCard > .row > .label, .statsCard > .row > .value {
    font: 600 15px "Helvetica Neue", Helvetica, Arial, sans-serif;
  }
  
  .langsCard > .row > .label, .langsCard > .row > .value {
    font: 400 12px "Helvetica Neue", Helvetica, Arial, sans-serif;
  }
  
  /**
   * Light theme.
   */
  
  .title {
    fill: #1f2937;
  }
  
  .label, .value {
    fill: #374151;
  }
  
  .icon {
    fill: #1f2937;
  }
  
  .background {
    fill: #ffffff;
    stroke: #e5e7eb;
  }
  
  .progressBarBackground {
    fill: #f3f4f6;
  }
  </style>
  <title id="title-id">@octocat: GitHub Stats</title>
  <desc id="description-id">GitHub statistics summary</desc>
  <rect class="background" x="0.5" y="0.5" rx="5" width="297" height="258" stroke-opacity="1"/>
  <g transform="translate(12, 30)"><text x="0" y="0" class="title">@octocat: GitHub Stats</text></g>
  <g class="statsCard" x="0" y="0">
    <g class="row">
      <svg xmlns="http://www.w3.org/2000/svg" class="icon" viewBox="0 0 512 512" x="12" y="43" width="16" height="16">
      <path
        d="M256 8.63q14.382.958 21.094 13.422l65.198 135.191 146.697 21.094q14.382 2.876 19.176 16.3 3.835 13.423-5.753 23.01l-106.427 105.47 24.929 149.572q1.917 13.423-9.588 23.011-11.506 7.67-23.97.96L256 426.666l-131.356 69.992q-12.464 6.712-23.97-1.917-11.505-8.63-9.588-22.053l24.929-149.573L9.588 217.648Q0 208.06 3.835 194.637q4.794-13.424 19.176-16.3l146.697-21.094 65.198-135.19Q241.618 9.587 256 8.628m0 75.745-50.816 103.55zl-50.816 103.55q-4.794 10.547-17.259 13.423l-113.138 16.3 82.456 81.498q7.67 8.63 6.712 20.135L143.82 434.337l101.633-53.693q10.547-5.753 21.094 0l100.674 53.693-19.176-115.056q-1.918-11.506 6.712-20.135l82.456-81.498-113.138-16.3q-12.465-2.876-17.259-13.423z" />
    </svg>
      <text class="label" x="35" y="58">Stars:</text>
      <text class="value" x="255" y="58">1.2k</text>
    </g>
    <g class="row">
      <svg xmlns="http://www.w3.org/2000/svg" class="icon" viewBox="0 0 512 512" x="12" y="70" width="16" height="16">
      <path
        d="M48 107V56zV56q-2-22-24-24Q2 34 0 56v112q2 22 24 24h112q22-2 24-24-2-22-24-24H81q28-44 74-70 45-25 101-26 88 2 147 61t61 147q-2 88-61 147t-147 61q-65-1-115-34-19-11-33 6-10 20 7 34 62 41 141 42 72-1 129-35 58-34 92-92 34-57 35-129-1-72-35-129-34-58-92-92Q328 1 256 0q-65 1-119 29-54 29-89 78m208 21q-22 2-24 24v104q0 10 7 17l72 72q17 14 34 0 14-17 0-34l-65-65v-94q-2-22-24-24" />
    </svg>
      <text class="label" x="35" y="85">Commits YTD:</text>
      <text class="value" x="255" y="85">567</text>
    </g>
    <g class="row">
      <svg xmlns="http://www.w3.org/2000/svg" class="icon" viewBox="0 0 512 512" x="12" y="97" width="16" height="16">
      <path
        d="M256 48q57 0 104 28 47 27 76 76 28 49 28 104t-28 104q-29 49-76 76-47 28-104 28t-104-28q-47-27-76-76-28-49-28-104t28-104q29-49 76-76 47-28 104-28m0 464q70-1 128-34 58-34 94-94 34-61 34-128t-34-128q-36-60-94-94Q326 1 256 0q-70 1-128 34-58 34-94 94Q0 189 0 256t34 128q36 60 94 94 58 33 128 34m0-384q-22 2-24 24v112q2 22 24 24 22-2 24-24V152q-2-22-24-24m32 224q0-14-9-23t-23-9-23 9-9 23 9 23 23 9 23-9 9-23" />
    </svg>
      <text class="label" x="35" y="112">Issues:</text>
      <text class="value" x="255" y="112">89</text>
    </g>
    <g class="row">
      <svg xmlns="http://www.w3.org/2000/svg" class="icon" viewBox="0 0 512 512" x="12" y="124" width="16" height="16">
      <path
        d="M305.709 4.97q12.924 6.96 13.918 21.873v47.72h15.907q50.703.994 84.505 34.796t34.796 84.505V356.91q24.854 7.953 39.767 27.837 15.907 20.877 15.907 47.72-.994 33.802-22.866 56.668-22.866 21.872-56.668 22.866-33.802-.994-56.668-22.866-21.872-22.866-22.866-56.668 0-26.843 15.907-47.72 14.912-19.884 39.767-27.837V193.864q-.995-30.82-20.878-50.703-19.884-19.883-50.703-20.878h-15.907v47.72q-.994 14.914-13.918 21.873-13.919 4.97-25.849-3.977l-79.534-71.58q-7.953-6.96-7.953-17.896t7.953-17.895l79.534-71.58Q291.79 0 305.71 4.97M112.84 82.517q0-13.919-8.948-22.867-8.947-8.947-22.866-8.947-13.918 0-22.866 8.947-8.947 8.948-8.947 22.867 0 13.918 8.947 22.866 8.948 8.947 22.866 8.947 13.919 0 22.866-8.947 8.948-8.948 8.948-22.866m-7.954 75.557v198.835zv198.835q24.855 7.953 39.767 27.837 15.907 20.877 15.907 47.72-.994 33.802-22.866 56.668Q114.827 511.006 81.025 512q-33.802-.994-56.668-22.866-21.872-22.866-22.866-56.668 0-26.843 15.907-47.72 14.913-19.884 39.767-27.837V158.074q-24.854-7.954-39.767-27.837-15.907-20.878-15.907-47.72.994-33.802 22.866-56.668Q47.223 3.977 81.025 2.983q33.802.994 56.668 22.866 21.872 22.866 22.866 56.668 0 26.842-15.907 47.72-14.912 19.883-39.767 27.837m7.954 274.392q0-13.918-8.948-22.866-8.947-8.948-22.866-8.948-13.918 0-22.866 8.948-8.947 8.948-8.947 22.866t8.947 22.866 22.866 8.948 22.866-8.948q8.948-8.948 8.948-22.866m318.136 31.814q13.918 0 22.866-8.948 8.947-8.948 8.947-22.866t-8.947-22.866-22.866-8.948-22.866 8.948-8.948 22.866 8.948 22.866 22.866 8.948" />
    </svg>
      <text class="label" x="35" y="139">Pull Requests:</text>
      <text class="value" x="255" y="139">123</text>
    </g>
    <g class="row">
      <svg xmlns="http://www.w3.org/2000/svg" class="icon" viewBox="0 0 512 512" x="12" y="151" width="16" height="16">
      <path
        d="M112 48q14 0 23 9t9 23-9 23-23 9-23-9-9-23 9-23 23-9m25 108q24-8 39-29 16-20 16-47-1-34-23-57-23-22-57-23-34 1-57 23-22 23-23 57 0 27 16 48 15 20 40 28v200q-25 8-40 28-16 21-16 48 1 34 23 57 23 22 57 23 34-1 57-23 22-23 23-57 0-27-16-48-15-20-40-28V255q42 40 104 41h84q8 25 28 40 21 16 48 16 34-1 57-23 22-23 23-57-1-34-23-57-23-22-57-23-27 0-48 16-20 15-28 40h-84q-41-1-69-27-29-25-34-65m-25 244q14 0 23 9t9 23-9 23-23 9-23-9-9-23 9-23 23-9m256-128q0-14 9-23t23-9 23 9 9 23-9 23-23 9-23-9-9-23" />
    </svg>
      <text class="label" x="35" y="166">Merge Requests:</text>
      <text class="value" x="255" y="166">45</text>
    </g>
    <g class="row">
      <svg xmlns="http://www.w3.org/2000/svg" class="icon" viewBox="0 0 512 512" x="12" y="178" width="16" height="16">
      <path
        d="M255.56 100.902q-43.181.881-78.43 17.625-35.25 15.862-62.569 42.3-25.556 23.793-43.18 49.349Q54.636 235.73 44.942 256q9.694 20.269 26.437 45.824 17.625 25.556 43.181 49.35 27.319 26.437 62.568 42.3 35.25 16.743 78.43 17.624 43.181-.881 78.43-17.625 35.25-15.862 62.569-42.3 25.556-23.793 43.18-49.349Q456.482 276.27 466.176 256q-9.694-20.269-26.438-45.824-17.624-25.556-43.18-49.35-27.319-26.437-62.568-42.3-35.25-16.743-78.43-17.624m-170.08 29.08q31.725-29.961 74.024-50.23t96.055-21.15q53.756.882 96.055 21.15 42.3 20.269 74.025 50.23 30.843 29.082 51.111 59.925 20.269 30.843 30.844 55.518 4.406 10.575 0 21.15-10.575 24.675-30.844 55.518-20.268 30.843-51.111 59.924-31.725 29.962-74.025 50.23-42.299 20.27-96.055 21.15-53.755-.88-96.055-21.15-42.3-20.268-74.024-50.23-30.843-29.08-51.112-59.924Q14.1 291.25 4.406 266.575 0 256 4.406 245.425q9.694-24.675 29.962-55.518t51.112-59.924M255.56 326.5q29.962-.881 50.23-20.268 19.387-20.269 20.269-50.231-.882-29.962-20.269-50.23-20.268-19.388-50.23-20.27h-1.763q1.762 7.05 1.762 14.1-.88 23.794-16.743 39.656Q222.954 255.12 199.16 256q-7.05 0-14.1-1.762V256q.881 29.962 20.269 50.23 20.268 19.388 50.23 20.27m0-183.298q30.843 0 56.399 14.981t41.418 41.419q14.981 26.437 14.981 56.399t-14.981 56.4q-15.862 26.436-41.418 41.418-25.556 14.98-56.4 14.98t-56.399-14.98-41.418-41.419Q142.76 285.962 142.76 256t14.98-56.4q15.863-26.436 41.42-41.418 25.555-14.98 56.398-14.98" />
    </svg>
      <text class="label" x="35" y="193">Reviews:</text>
      <text class="value" x="255" y="193">67</text>
    </g>
    <g class="row">
      <svg xmlns="http://www.w3.org/2000/svg" class="icon" viewBox="0 0 512 512" x="12" y="205" width="16" height="16">
      <path
        d="M38.4 107.6Q40 90 57.6 88.4h217.6q17.6 1.6 19.2 19.2v140.8q-1.6 17.6-19.2 19.2H172.8q-5.6 0-10.4 3.2L115.2 302v-15.2q-1.6-17.6-19.2-19.2H57.6Q40 266 38.4 248.4zM57.6 50q-24.8.8-40.8 16.8T0 107.6v140.8q.8 24.8 16.8 40.8T57.6 306h19.2v32q.8 11.2 10.4 16.8 9.6 4.8 19.2-.8l72-48h96.8q24.8-.8 40.8-16.8t16.8-40.8V107.6Q332 82.8 316 66.8T275.2 50zm147.2 300.8q.8 24.8 16.8 40.8t40.8 16.8h71.2l72 48q9.6 5.6 19.2.8 9.6-5.6 10.4-16.8v-32h19.2q24.8-.8 40.8-16.8t16.8-40.8V210q-.8-24.8-16.8-40.8t-40.8-16.8h-96v38.4h96q17.6 1.6 19.2 19.2v140.8q-1.6 17.6-19.2 19.2H416q-17.6 1.6-19.2 19.2v15.2l-47.2-31.2q-4.8-3.2-10.4-3.2h-76.8q-17.6-1.6-19.2-19.2v-19.2h-38.4z" />
    </svg>
      <text class="label" x="35" y="220">Started Discussions:</text>
      <text class="value" x="255" y="220">12</text>
    </g>
    <g class="row">
      <svg xmlns="http://www.w3.org/2000/svg" class="icon" viewBox="0 0 512 512" x="12" y="232" width="16" height="16">
      <path
        d="M208.187 414.381q-.996-19.922-13.946-33.867-13.945-12.95-33.867-13.946H64.747q-14.942-.996-15.938-15.938V63.751q.996-14.942 15.938-15.938h382.506q14.942.996 15.938 15.938v286.88q-.996 14.941-15.938 15.937h-138.46q-15.937 0-27.89 9.961l-72.716 53.79zm0 75.705 100.607-75.705h138.459q26.895-.996 44.825-18.926t18.926-44.825V63.751q-.996-26.895-18.926-44.825T447.253 0H64.747Q37.852.996 19.922 18.926T.996 63.751v286.88q.996 26.894 18.926 44.824t44.825 18.926h95.627v79.689q0 9.961 8.965 13.946t16.933-.997l16.934-12.949zM368.56 152.405q13.946-16.934 0-33.868-16.934-13.946-33.867 0L224.125 229.105l-46.818-46.817q-16.933-13.946-33.867 0-13.946 16.934 0 33.868l63.75 63.75q16.935 13.946 33.868 0z" />
    </svg>
      <text class="label" x="35" y="247">Answered Discussions:</text>
      <text class="value" x="255" y="247">34</text>
    </g>

  </g>
</svg>
