<svg xmlns="http://www.w3.org/2000/svg" class="icon" viewBox="0 0 512 512">
  <path
    d="M256 48q57 0 104 28 47 27 76 76 28 49 28 104t-28 104q-29 49-76 76-47 28-104 28t-104-28q-47-27-76-76-28-49-28-104t28-104q29-49 76-76 47-28 104-28m0 464q70-1 128-34 58-34 94-94 34-61 34-128t-34-128q-36-60-94-94Q326 1 256 0q-70 1-128 34-58 34-94 94Q0 189 0 256t34 128q36 60 94 94 58 33 128 34m0-384q-22 2-24 24v112q2 22 24 24 22-2 24-24V152q-2-22-24-24m32 224q0-14-9-23t-23-9-23 9-9 23 9 23 23 9 23-9 9-23" />
</svg>