<svg xmlns="http://www.w3.org/2000/svg" class="icon" viewBox="0 0 512 512">
  <path
    d="M305.709 4.97q12.924 6.96 13.918 21.873v47.72h15.907q50.703.994 84.505 34.796t34.796 84.505V356.91q24.854 7.953 39.767 27.837 15.907 20.877 15.907 47.72-.994 33.802-22.866 56.668-22.866 21.872-56.668 22.866-33.802-.994-56.668-22.866-21.872-22.866-22.866-56.668 0-26.843 15.907-47.72 14.912-19.884 39.767-27.837V193.864q-.995-30.82-20.878-50.703-19.884-19.883-50.703-20.878h-15.907v47.72q-.994 14.914-13.918 21.873-13.919 4.97-25.849-3.977l-79.534-71.58q-7.953-6.96-7.953-17.896t7.953-17.895l79.534-71.58Q291.79 0 305.71 4.97M112.84 82.517q0-13.919-8.948-22.867-8.947-8.947-22.866-8.947-13.918 0-22.866 8.947-8.947 8.948-8.947 22.867 0 13.918 8.947 22.866 8.948 8.947 22.866 8.947 13.919 0 22.866-8.947 8.948-8.948 8.948-22.866m-7.954 75.557v198.835zv198.835q24.855 7.953 39.767 27.837 15.907 20.877 15.907 47.72-.994 33.802-22.866 56.668Q114.827 511.006 81.025 512q-33.802-.994-56.668-22.866-21.872-22.866-22.866-56.668 0-26.843 15.907-47.72 14.913-19.884 39.767-27.837V158.074q-24.854-7.954-39.767-27.837-15.907-20.878-15.907-47.72.994-33.802 22.866-56.668Q47.223 3.977 81.025 2.983q33.802.994 56.668 22.866 21.872 22.866 22.866 56.668 0 26.842-15.907 47.72-14.912 19.883-39.767 27.837m7.954 274.392q0-13.918-8.948-22.866-8.947-8.948-22.866-8.948-13.918 0-22.866 8.948-8.947 8.948-8.947 22.866t8.947 22.866 22.866 8.948 22.866-8.948q8.948-8.948 8.948-22.866m318.136 31.814q13.918 0 22.866-8.948 8.947-8.948 8.947-22.866t-8.947-22.866-22.866-8.948-22.866 8.948-8.948 22.866 8.948 22.866 22.866 8.948" />
</svg>