<svg xmlns="http://www.w3.org/2000/svg" class="icon" viewBox="0 0 512 512">
  <path
    d="M112 48q14 0 23 9t9 23-9 23-23 9-23-9-9-23 9-23 23-9m25 108q24-8 39-29 16-20 16-47-1-34-23-57-23-22-57-23-34 1-57 23-22 23-23 57 0 27 16 48 15 20 40 28v200q-25 8-40 28-16 21-16 48 1 34 23 57 23 22 57 23 34-1 57-23 22-23 23-57 0-27-16-48-15-20-40-28V255q42 40 104 41h84q8 25 28 40 21 16 48 16 34-1 57-23 22-23 23-57-1-34-23-57-23-22-57-23-27 0-48 16-20 15-28 40h-84q-41-1-69-27-29-25-34-65m-25 244q14 0 23 9t9 23-9 23-23 9-23-9-9-23 9-23 23-9m256-128q0-14 9-23t23-9 23 9 9 23-9 23-23 9-23-9-9-23" />
</svg>