<svg xmlns="http://www.w3.org/2000/svg" class="icon" viewBox="0 0 512 512">
  <path
    d="M255.56 100.902q-43.181.881-78.43 17.625-35.25 15.862-62.569 42.3-25.556 23.793-43.18 49.349Q54.636 235.73 44.942 256q9.694 20.269 26.437 45.824 17.625 25.556 43.181 49.35 27.319 26.437 62.568 42.3 35.25 16.743 78.43 17.624 43.181-.881 78.43-17.625 35.25-15.862 62.569-42.3 25.556-23.793 43.18-49.349Q456.482 276.27 466.176 256q-9.694-20.269-26.438-45.824-17.624-25.556-43.18-49.35-27.319-26.437-62.568-42.3-35.25-16.743-78.43-17.624m-170.08 29.08q31.725-29.961 74.024-50.23t96.055-21.15q53.756.882 96.055 21.15 42.3 20.269 74.025 50.23 30.843 29.082 51.111 59.925 20.269 30.843 30.844 55.518 4.406 10.575 0 21.15-10.575 24.675-30.844 55.518-20.268 30.843-51.111 59.924-31.725 29.962-74.025 50.23-42.299 20.27-96.055 21.15-53.755-.88-96.055-21.15-42.3-20.268-74.024-50.23-30.843-29.08-51.112-59.924Q14.1 291.25 4.406 266.575 0 256 4.406 245.425q9.694-24.675 29.962-55.518t51.112-59.924M255.56 326.5q29.962-.881 50.23-20.268 19.387-20.269 20.269-50.231-.882-29.962-20.269-50.23-20.268-19.388-50.23-20.27h-1.763q1.762 7.05 1.762 14.1-.88 23.794-16.743 39.656Q222.954 255.12 199.16 256q-7.05 0-14.1-1.762V256q.881 29.962 20.269 50.23 20.268 19.388 50.23 20.27m0-183.298q30.843 0 56.399 14.981t41.418 41.419q14.981 26.437 14.981 56.399t-14.981 56.4q-15.862 26.436-41.418 41.418-25.556 14.98-56.4 14.98t-56.399-14.98-41.418-41.419Q142.76 285.962 142.76 256t14.98-56.4q15.863-26.436 41.42-41.418 25.555-14.98 56.398-14.98" />
</svg>