<svg xmlns="http://www.w3.org/2000/svg" class="icon" viewBox="0 0 512 512">
  <path
    d="M38.4 107.6Q40 90 57.6 88.4h217.6q17.6 1.6 19.2 19.2v140.8q-1.6 17.6-19.2 19.2H172.8q-5.6 0-10.4 3.2L115.2 302v-15.2q-1.6-17.6-19.2-19.2H57.6Q40 266 38.4 248.4zM57.6 50q-24.8.8-40.8 16.8T0 107.6v140.8q.8 24.8 16.8 40.8T57.6 306h19.2v32q.8 11.2 10.4 16.8 9.6 4.8 19.2-.8l72-48h96.8q24.8-.8 40.8-16.8t16.8-40.8V107.6Q332 82.8 316 66.8T275.2 50zm147.2 300.8q.8 24.8 16.8 40.8t40.8 16.8h71.2l72 48q9.6 5.6 19.2.8 9.6-5.6 10.4-16.8v-32h19.2q24.8-.8 40.8-16.8t16.8-40.8V210q-.8-24.8-16.8-40.8t-40.8-16.8h-96v38.4h96q17.6 1.6 19.2 19.2v140.8q-1.6 17.6-19.2 19.2H416q-17.6 1.6-19.2 19.2v15.2l-47.2-31.2q-4.8-3.2-10.4-3.2h-76.8q-17.6-1.6-19.2-19.2v-19.2h-38.4z" />
</svg>