<svg xmlns="http://www.w3.org/2000/svg" class="icon" viewBox="0 0 512 512">
  <path
    d="M208.187 414.381q-.996-19.922-13.946-33.867-13.945-12.95-33.867-13.946H64.747q-14.942-.996-15.938-15.938V63.751q.996-14.942 15.938-15.938h382.506q14.942.996 15.938 15.938v286.88q-.996 14.941-15.938 15.937h-138.46q-15.937 0-27.89 9.961l-72.716 53.79zm0 75.705 100.607-75.705h138.459q26.895-.996 44.825-18.926t18.926-44.825V63.751q-.996-26.895-18.926-44.825T447.253 0H64.747Q37.852.996 19.922 18.926T.996 63.751v286.88q.996 26.894 18.926 44.824t44.825 18.926h95.627v79.689q0 9.961 8.965 13.946t16.933-.997l16.934-12.949zM368.56 152.405q13.946-16.934 0-33.868-16.934-13.946-33.867 0L224.125 229.105l-46.818-46.817q-16.933-13.946-33.867 0-13.946 16.934 0 33.868l63.75 63.75q16.935 13.946 33.868 0z" />
</svg>