<svg xmlns="http://www.w3.org/2000/svg" class="icon" viewBox="0 0 512 512">
  <path
    d="M256 8.63q14.382.958 21.094 13.422l65.198 135.191 146.697 21.094q14.382 2.876 19.176 16.3 3.835 13.423-5.753 23.01l-106.427 105.47 24.929 149.572q1.917 13.423-9.588 23.011-11.506 7.67-23.97.96L256 426.666l-131.356 69.992q-12.464 6.712-23.97-1.917-11.505-8.63-9.588-22.053l24.929-149.573L9.588 217.648Q0 208.06 3.835 194.637q4.794-13.424 19.176-16.3l146.697-21.094 65.198-135.19Q241.618 9.587 256 8.628m0 75.745-50.816 103.55zl-50.816 103.55q-4.794 10.547-17.259 13.423l-113.138 16.3 82.456 81.498q7.67 8.63 6.712 20.135L143.82 434.337l101.633-53.693q10.547-5.753 21.094 0l100.674 53.693-19.176-115.056q-1.918-11.506 6.712-20.135l82.456-81.498-113.138-16.3q-12.465-2.876-17.259-13.423z" />
</svg>